<svg xmlns="http://www.w3.org/2000/svg" aria-hidden="true" style="position:absolute;width:0;height:0;overflow:hidden">
  <defs>
    <symbol id="icon-basket-icon" viewBox="0 0 24 24">
      <path d="M12.816 8.112c-.603.836-.816 1.88-.816 2.555V12h8v-1.333c0-.676-.213-1.719-.815-2.555-.553-.768-1.487-1.445-3.185-1.445s-2.632.677-3.184 1.445zM22.667 12v-1.333c0-1.103-.32-2.725-1.317-4.112C20.302 5.1 18.569 4 16.001 4S11.7 5.1 10.652 6.555c-.997 1.387-1.317 3.009-1.317 4.112V12H4.002a1.335 1.335 0 0 0-.943 2.277c.251.25.589.391.943.391h.127l1.213 12.133a1.33 1.33 0 0 0 1.326 1.2h18.667a1.33 1.33 0 0 0 1.326-1.2l1.213-12.133h.127a1.334 1.334 0 0 0 0-2.668h-5.333zM12 18.667a1.335 1.335 0 0 0-2.277-.943c-.25.25-.391.589-.391.943v2.667a1.335 1.335 0 0 0 2.277.943c.25-.25.391-.589.391-.943v-2.667zm5.333 0a1.334 1.334 0 0 0-2.668 0v2.667a1.334 1.334 0 0 0 2.668 0v-2.667zm5.334 0a1.334 1.334 0 0 0-2.668 0v2.667a1.334 1.334 0 0 0 2.668 0v-2.667z"/>
    </symbol>
    <symbol id="icon-close-mobile-menu-icon" viewBox="0 0 20 14">
      <path stroke-linecap="round" stroke-linejoin="round" stroke-width="2.667" d="M24 8 8 24M8 8l16 16"/>
    </symbol>
    <symbol id="icon-open-mobile-menu-icon" viewBox="0 0 20 14">
        <path d="M3.368 1.676c0-0.926 0.751-1.676 1.676-1.676h13.491c0.444 0 0.871 0.177 1.185 0.491s0.491 0.741 0.491 1.185c0 0.444-0.177 0.871-0.491 1.185s-0.741 0.491-1.185 0.491h-13.491c-0.444 0-0.871-0.177-1.185-0.491s-0.491-0.74-0.491-1.185zM3.368 11.789c0-0.926 0.751-1.676 1.676-1.676h30.333c0.444 0 0.871 0.177 1.185 0.491s0.491 0.741 0.491 1.185c0 0.444-0.176 0.871-0.491 1.185s-0.741 0.491-1.185 0.491h-30.333c-0.444 0-0.871-0.177-1.185-0.491s-0.491-0.741-0.491-1.185zM5.044 20.227c-0.444 0-0.871 0.177-1.185 0.491s-0.491 0.741-0.491 1.185c0 0.444 0.177 0.871 0.491 1.185s0.74 0.491 1.185 0.491h20.227c0.444 0 0.871-0.177 1.185-0.491s0.491-0.741 0.491-1.185c0-0.444-0.177-0.871-0.491-1.185s-0.741-0.491-1.185-0.491h-20.227z"></path>
    </symbol>
    <symbol id="icon-page-logo-icon" viewBox="0 0 16 16">
      <path d="M29.082 0.314h-4.009c-1.237 0-2.24 0.983-2.24 2.195v3.929c0 1.212 1.003 2.195 2.24 2.195h4.009c1.237 0 2.24-0.983 2.24-2.195v-3.929c0-1.212-1.003-2.195-2.24-2.195z"></path>
      <path d="M6.73 23.040h-4.318c-1.332 0-2.412 0.983-2.412 2.195v3.929c0 1.213 1.080 2.195 2.412 2.195h4.318c1.332 0 2.412-0.983 2.412-2.195v-3.929c0-1.212-1.080-2.195-2.412-2.195z"></path>
      <path d="M6.25 11.582h-4.009c-1.237 0-2.24 0.983-2.24 2.195v3.929c0 1.212 1.003 2.195 2.24 2.195h4.009c1.237 0 2.24-0.983 2.24-2.195v-3.929c0-1.212-1.003-2.195-2.24-2.195z"></path>
      <path d="M17.766 22.978h-4.009c-1.237 0-2.24 0.983-2.24 2.195l-0 3.929c0 1.212 1.003 2.195 2.241 2.195h4.009c1.237 0 2.24-0.983 2.24-2.195v-3.929c0-1.213-1.003-2.195-2.24-2.195z"></path>
      <path d="M6.25 0.086h-4.009c-1.237 0-2.24 0.983-2.24 2.195v3.929c0 1.212 1.003 2.195 2.24 2.195h4.009c1.237 0 2.24-0.983 2.24-2.195v-3.929c0-1.212-1.003-2.195-2.24-2.195z"></path>
      <path d="M18.076 11.697h-4.009c-1.237 0-2.24 0.983-2.24 2.195v3.929c0 1.212 1.003 2.195 2.24 2.195h4.009c1.237 0 2.24-0.983 2.24-2.195v-3.929c0-1.212-1.003-2.195-2.24-2.195z"></path>
      <path d="M29.333 22.978h-4.010c-1.237 0-2.24 0.983-2.24 2.195v3.929c0 1.212 1.003 2.195 2.24 2.195h4.009c1.237 0 2.24-0.983 2.24-2.195v-3.929c0-1.213-1.003-2.195-2.24-2.195z"></path>
      <path d="M17.591 0.224h-4.009c-1.237 0-2.24 0.983-2.24 2.195v3.929c0 1.212 1.003 2.195 2.24 2.195h4.009c1.237 0 2.24-0.984 2.24-2.196v-3.929c0-1.212-1.003-2.195-2.24-2.195z"></path>
      <path d="M29.044 11.926h-4.010c-1.237 0-2.24 0.983-2.24 2.195v3.929c0 1.212 1.003 2.195 2.24 2.195h4.009c1.237 0 2.24-0.983 2.24-2.195v-3.929c0-1.212-1.003-2.195-2.24-2.195z"></path>
    </symbol>
  </defs>
</svg>